<svg width="14" height="14" viewBox="0 0 14 14" fill="none" xmlns="http://www.w3.org/2000/svg">
<g clip-path="url(#clip0)">
<path d="M11.6666 13.3581C11.6083 13.3581 11.5499 13.3581 11.4916 13.3581C9.62494 13.1247 7.75827 12.4831 6.18327 11.4914C4.72494 10.5581 3.4416 9.27474 2.50827 7.81641C1.45827 6.24141 0.816602 4.37474 0.641602 2.50807C0.641602 2.04141 0.758268 1.57474 1.04993 1.22474C1.3416 0.87474 1.74993 0.641406 2.2166 0.583073C2.27493 0.583073 2.33327 0.583073 2.3916 0.583073H4.1416C5.0166 0.583073 5.77494 1.22474 5.8916 2.09974C5.94994 2.62474 6.0666 3.14974 6.2416 3.61641C6.47494 4.25807 6.29993 4.95807 5.83327 5.48307L5.42494 5.89141C6.12494 6.94141 6.99993 7.87474 8.10827 8.57474L8.5166 8.16641C8.98327 7.69974 9.7416 7.52474 10.3833 7.75807C10.8499 7.93307 11.3749 8.04974 11.8999 8.10807C12.7749 8.22474 13.4166 8.98307 13.4166 9.85807V11.6081C13.4166 12.0747 13.2416 12.5414 12.8916 12.8331C12.5416 13.1247 12.1333 13.3581 11.6666 13.3581ZM4.1416 1.74974H2.3916C2.2166 1.74974 2.0416 1.86641 1.92493 1.98307C1.8666 2.09974 1.80827 2.21641 1.80827 2.39141C1.98327 4.08307 2.5666 5.71641 3.49994 7.17474C4.37494 8.51641 5.48327 9.68307 6.82493 10.4997C8.28327 11.4331 9.9166 12.0164 11.6083 12.1914C11.8416 12.1914 11.9583 12.1331 12.0749 12.0164C12.1916 11.8997 12.2499 11.7831 12.2499 11.6081V9.85807C12.2499 9.56641 12.0166 9.33307 11.7249 9.27474C11.1416 9.21641 10.5583 9.04141 9.97494 8.80807C9.7416 8.74974 9.50827 8.74974 9.33327 8.92474L8.57493 9.68307C8.39994 9.85807 8.10827 9.91641 7.87494 9.79974C6.29993 8.92474 5.0166 7.64141 4.1416 6.06641C4.08327 5.83307 4.1416 5.54141 4.3166 5.36641L5.07493 4.60807C5.1916 4.49141 5.24994 4.19974 5.1916 4.02474C4.95827 3.44141 4.8416 2.85807 4.72494 2.27474C4.72494 1.98307 4.43327 1.74974 4.1416 1.74974ZM11.0833 5.83307C10.7916 5.83307 10.5583 5.65807 10.4999 5.36641C10.3249 4.43307 9.5666 3.73307 8.63327 3.49974C8.3416 3.44141 8.10827 3.14974 8.1666 2.79974C8.22494 2.50807 8.5166 2.27474 8.8666 2.33307C10.2666 2.62474 11.3749 3.67474 11.6083 5.07474C11.6666 5.36641 11.4916 5.71641 11.1416 5.77474C11.1416 5.77474 11.1416 5.83307 11.0833 5.83307ZM13.4166 5.77474C13.1249 5.77474 12.8916 5.54141 12.8333 5.24974C12.5999 3.09141 10.9083 1.39974 8.6916 1.10807C8.39993 1.04974 8.1666 0.758073 8.1666 0.466406C8.1666 0.17474 8.5166 -0.0585938 8.80827 -0.0585938C11.5499 0.233073 13.6499 2.33307 13.9416 5.07474C13.9999 5.36641 13.7666 5.65807 13.4166 5.71641C13.4749 5.77474 13.4166 5.77474 13.4166 5.77474Z" fill="white"/>
</g>
<defs>
<clipPath id="clip0">
<rect width="14" height="14" fill="white"/>
</clipPath>
</defs>
</svg>
