<svg width="12" height="14" viewBox="0 0 12 14" fill="none" xmlns="http://www.w3.org/2000/svg">
<path fill-rule="evenodd" clip-rule="evenodd" d="M5.64195 0.705886C5.8526 0.542049 6.14757 0.542049 6.35821 0.705886L11.6082 4.78922C11.7503 4.89974 11.8334 5.06966 11.8334 5.24967V11.6663C11.8334 12.1305 11.649 12.5756 11.3209 12.9038C10.9927 13.232 10.5475 13.4163 10.0834 13.4163H1.91675C1.45262 13.4163 1.0075 13.232 0.679311 12.9038C0.351123 12.5756 0.166748 12.1305 0.166748 11.6663V5.24967C0.166748 5.06966 0.249857 4.89974 0.391949 4.78922L5.64195 0.705886ZM1.33341 5.53497V11.6663C1.33341 11.8211 1.39487 11.9694 1.50427 12.0788C1.61367 12.1882 1.76204 12.2497 1.91675 12.2497H10.0834C10.2381 12.2497 10.3865 12.1882 10.4959 12.0788C10.6053 11.9694 10.6667 11.821 10.6667 11.6663V5.53497L6.00008 1.90534L1.33341 5.53497Z" fill="white"/>
<path fill-rule="evenodd" clip-rule="evenodd" d="M3.66675 6.99967C3.66675 6.67751 3.92792 6.41634 4.25008 6.41634H7.75008C8.07225 6.41634 8.33342 6.67751 8.33342 6.99967V12.833C8.33342 13.1552 8.07225 13.4163 7.75008 13.4163C7.42792 13.4163 7.16675 13.1552 7.16675 12.833V7.58301H4.83342V12.833C4.83342 13.1552 4.57225 13.4163 4.25008 13.4163C3.92792 13.4163 3.66675 13.1552 3.66675 12.833V6.99967Z" fill="white"/>
</svg>
